<svg id="Layer_1" data-name="Layer 1" xmlns="http://www.w3.org/2000/svg" viewBox="0 0 18.67 34.69"><defs><style>.cls-1{fill:#a7a9ac;}.cls-2{fill:#f7901e;}</style></defs><title>gLogo</title><path class="cls-1" d="M16.29,31.61c2.48,0,4.1-1,4.37-5.88H11.87C12.16,30.56,13.85,31.61,16.29,31.61Z" transform="translate(-6.99 -12.51)"/><path class="cls-1" d="M15.23,23.44a1.84,1.84,0,1,0-2.79-.22L12,24l0.81-.4A1.84,1.84,0,0,0,15.23,23.44Z" transform="translate(-6.99 -12.51)"/><path class="cls-1" d="M10.85,18.32a1.29,1.29,0,1,0-.16,2l0.57,0.28L11,20A1.29,1.29,0,0,0,10.85,18.32Z" transform="translate(-6.99 -12.51)"/><path class="cls-1" d="M13.2,15.56a0.83,0.83,0,1,0-1.25-.1l-0.18.36,0.36-.18A0.83,0.83,0,0,0,13.2,15.56Z" transform="translate(-6.99 -12.51)"/><path class="cls-2" d="M22.23,12.51v2.8a8.4,8.4,0,0,0-1.78-1.74l-2.06,2.06c3.27,1.08,3.8,4.82,3.8,8.57,0,4.44-.73,8.89-5.9,8.89s-5.94-4.44-5.94-8.89c0-.18,0-0.36,0-0.54L7,27c0.26,2.78,1,5.3,2.78,7.07a8.17,8.17,0,0,0,5.75,2.13,7.66,7.66,0,0,0,6.67-3.09v3.72c0,4.06-1.93,7.29-6.52,7.29-2.76,0-4-.82-5.7-2.37L7.69,44a10.49,10.49,0,0,0,8.07,3.19c6.23,0,9.9-4.3,9.9-10.19V12.51H22.23Z" transform="translate(-6.99 -12.51)"/></svg>